<?xml version="1.0" encoding="UTF-8"?><svg id="Layer_1" xmlns="http://www.w3.org/2000/svg" viewBox="0 0 196.42 196.42"><defs><style>.cls-1{fill:#fc0;}.cls-2{fill:#060000;}.cls-3{fill:#a30000;}.cls-4{fill:#a40000;}</style></defs><circle cx="98.21" cy="98.21" r="98.21"/><path class="cls-4" d="M70.37,64.77c-17.9,6.32-31.45,21.56-34.65,40.47-1.44,8.5-.56,14.11.57,22.41.06.42.43,1.33-.28,1.24-16.19-33.52-3.41-74.19,29.34-91.74,26.78-14.35,70.64,1.75,56.69,37-10.24,25.86-50.74,17.43-51.66-9.37Z"/><path class="cls-3" d="M83.5,138.55c-.22.26-.02.54.24.8,1.68,1.6,6.36,4.49,8.52,5.69,17.94,9.97,38.85,8.5,55.78-2.77l8.07-6.22c-1.31,2.3-2.94,4.54-4.65,6.55-22.33,26.12-60.76,32.61-90.09,14.04-26.56-16.83-31.9-64.71,6.09-67.54,24.98-1.85,36.89,31.62,18.54,47.9-.54.48-2.4,1.45-2.5,1.56ZM71.84,103.85c-.1-.18-1.62-.81-1.98-.9-5.28-1.33-12.85,2.58-18.41,2,1.82,4.55,8.32,1.71,11.97,1.55-1.41,2.52-3.58,2.49-6.18,2.32-.86.75,3.28,2.42,3.86,2.32.1.12-.22.51-.38.58-.46.22-5.19,1.19-6.03,1.3-.99.14-7.07-.36-3.98,1.75,2.95,2.02,6.4.26,9.62.23l-1.68,2.18-7.59,6.31c1.24.19,2.26-1.43,3.03-1.9,1.24-.76,6.44-3.83,7.54-3.47s.59,2.75.19,3c-.79.49-3.72-.78-3.42.83,3.07-.06,3.4,1.68,3.48,4.25l-11.21,1.34c-1.1,1.81,2.76,2.56,4.07,2.56.86,0,3.49-.99,3.29.16-.33,1.91-7.04,5.09-8.77,6.28-.34.24-.72-.06-.5.86,2.16-1.05,5.16.44,6.93-.21,1.34-.49,6.22-6.23,6.58-5.97,1.16,1.36-.29,4.26-.22,4.66.18.95,2.29,2.94,3.42,2.63,1.87-.52.67-3.12.65-4.38-.02-1.56,2.38.89,2.98,1.27,1.81,1.14,4.5,2.82,6.42,3.62s5.46,2,5.28-1.39c-.15-2.62-2.42-1.12-3.93-1.48-3.46-.83-5.73-3.71-8.27-5.26-1.84-1.12-4.87-1.18.1-1.94,1.77-.27,6.04-.1,7.23-.49.97-.32.82-1.73.09-2.29-2.41-1.88-10.68.72-11.42-.94-.35-.78.89-.51,1.1-1.2.09-.3.45-3.04.45-3.44,0-1.42-1.29-1.9-1.17-3.27,2.58-.35,4.7-2.36,7.14-3.13,1.23-.39,2.98.31,3.6-1.4.48-1.32-1.1-2.02-2.22-2.26-3.6-.79-6.85,1.6-9.68-1.52,1.52-1.02,4.01-1.38,5.49-2.13.38-.19.42-.74.7-.92.66-.42,2.82-.33,1.84-2.09Z"/><path class="cls-3" d="M142.97,138.93c-2.62-.99-4.85.96-7.27,1.82-.83.3-1.77.84-1.88.87-.37.09-7.2.09-7.57,0-.28-.07-.24-.63-.8-.82-1.13-.38-5.33-1.03-5.58-1.17s-.25-1.13-1.11-1.39-2.12.16-3-.48c-.6-.43-.44-1.13-.72-1.4-1.37-1.38-3.82-1.61-5.5-3.96-1.27-1.77-1.48-5.25-4.42-4.65-13.18-22.06,13.35-48.57,35.72-37.46,5.6-26.76-11.67-53.51-37.65-60.65-.09-.68.88-.36,1.34-.38,12.75-.54,30.38,8.71,39.77,17,26.78,23.67,35.08,73.97-1.34,92.69ZM143.65,104.45c2.52-2.36-1.12-4.38-3.38-4.54.34,2.92-2.18,4.83-3.09,7.34.52.5,2.81-1.85,3.49-2.1.9-.34,2.34-.11,2.97-.7ZM135.13,104.67c-.93-.96-3.21-1.33-4.51-1.66.94,2.63,2.66,5.01,5.79,4.63.29-.27-.99-2.68-1.27-2.97ZM124.82,109.19c1.24-1.21-6.32-5.62-6.95-5.02-.63,2.33,6.26,5.69,6.95,5.02ZM146.45,106.87c-.21-.19-4.75,0-5.6,0-.06,0-.43.59-.87.68-4.11.76-8.44,2.42-12.45,1.64-.9.82,4.53,3.56,5.41,3.09.15,1.39-1.08,2.28-1.55,3.47,3.44,1.25,5.68-1.02,8.88-1.16.8,2.02-2.08,3.17-3.77,3.38-2.96.37-2.02-1.03-3.05-1.39-.78-.27-1.98.04-2.84-.06.41,1.16.72,2.41.78,3.65.14,2.63-1.32,4.6,1.17,6.17,1.52.96,5.27,0,7.18-.14,1.08-.09,2.44.7,3.4-.43.31-.36,1.86-4.92,2.03-5.69.46-2.05,1.31-5.01-.95-6.18-3.82-1.97-6.49.51-9.98,1.04-1.89.29-.47-1.4.23-1.7.96-.42,2.08,0,3.08-.78.75-.58.61-1.49,1.04-1.75,1.11-.66,7.86-.79,8.18-2.14.02-.08-.27-1.65-.34-1.71ZM125.07,116.77c.34-.47,1.38-1.88,1.28-2.33-2.98-3.2-6.63-.08-9.44-.21-1.07-.05-1.54-.75-2.51-.8.03,2.88,4.13,2.77,4.93,3.56.26.26.73,2.01,1.03,2.64.97,2.05,2.05,1.1.37,3.81-2.46,3.98-3.96,2.99-8.27,3.51,1.43,2.03,5.08,1.15,7.08,1.3,4.13.31,8.03,3.12,12.07,4.46,3.7,1.23,9.9,2.77,13.7,2.17.96-.15,5.84-1.44,4.61-2.91-3.64-.5-7.28-.94-10.89-1.67-6.19-1.25-12.14-3.95-18.46-3.75-.22-.89.17-.64.49-.88,1.66-1.3,3.44-1.91,5.3-2.8-.29-1.96-3.49-2.97-2.43-5.11.3-.59.91-.71,1.12-1Z"/><path class="cls-4" d="M105.13,127.73c2.94-.6,3.16,2.88,4.42,4.65,1.68,2.35,4.13,2.58,5.5,3.96.27.28.12.97.72,1.4.88.64,2.12.22,3,.48s.87,1.26,1.11,1.39,4.45.79,5.58,1.17c.56.19.52.76.8.82.37.09,7.2.09,7.57,0,.11-.03,1.05-.58,1.88-.87,2.42-.86,4.64-2.81,7.27-1.82-1.04.53-2.13,1.48-3.27,1.94-13.27,5.44-27.64-1.54-34.58-13.14Z"/><path class="cls-2" d="M71.84,103.85c.99,1.76-1.17,1.68-1.84,2.09-.28.18-.32.73-.7.92-1.48.75-3.97,1.11-5.49,2.13,2.83,3.11,6.08.73,9.68,1.52,1.13.25,2.7.94,2.22,2.26-.62,1.71-2.37,1.01-3.6,1.4-2.44.77-4.56,2.78-7.14,3.13-.12,1.37,1.17,1.85,1.17,3.27,0,.4-.36,3.15-.45,3.44-.21.68-1.45.42-1.1,1.2.74,1.66,9.01-.95,11.42.94.73.57.88,1.98-.09,2.29-1.19.39-5.46.22-7.23.49-4.98.76-1.95.82-.1,1.94,2.54,1.55,4.81,4.43,8.27,5.26,1.51.36,3.79-1.14,3.93,1.48.19,3.39-3.31,2.21-5.28,1.39s-4.61-2.48-6.42-3.62c-.61-.38-3.01-2.83-2.98-1.27.02,1.26,1.22,3.86-.65,4.38-1.14.32-3.25-1.68-3.42-2.63-.07-.4,1.38-3.29.22-4.66-.36-.26-5.24,5.48-6.58,5.97-1.77.64-4.77-.84-6.93.21-.21-.92.16-.63.5-.86,1.73-1.19,8.44-4.37,8.77-6.28.2-1.15-2.43-.16-3.29-.16-1.31,0-5.17-.75-4.07-2.56l11.21-1.34c-.08-2.57-.41-4.31-3.48-4.25-.29-1.61,2.63-.33,3.42-.83.4-.25.85-2.67-.19-3-1.1-.36-6.3,2.71-7.54,3.47-.77.47-1.78,2.09-3.03,1.9l7.59-6.31,1.68-2.18c-3.22.03-6.67,1.78-9.62-.23-3.09-2.11,2.99-1.61,3.98-1.75.85-.12,5.57-1.09,6.03-1.3.16-.07.47-.46.38-.58-.57.1-4.72-1.57-3.86-2.32,2.6.18,4.77.2,6.18-2.32-3.65.16-10.15,3-11.97-1.55,5.55.59,13.13-3.33,18.41-2,.37.09,1.88.73,1.98.9ZM66.51,113.83c-2.68-.11-2.47.74-2.31,3.09.63-.1,2.66-2.77,2.31-3.09Z"/><path class="cls-2" d="M146.45,106.87c.07.06.36,1.62.34,1.71-.32,1.35-7.07,1.48-8.18,2.14-.43.26-.29,1.17-1.04,1.75-1,.78-2.12.36-3.08.78-.7.3-2.12,1.99-.23,1.7,3.49-.54,6.16-3.02,9.98-1.04,2.26,1.16,1.41,4.12.95,6.18-.17.77-1.72,5.33-2.03,5.69-.96,1.13-2.33.34-3.4.43-1.92.15-5.66,1.11-7.18.14-2.49-1.57-1.03-3.55-1.17-6.17-.07-1.24-.38-2.49-.78-3.65.86.1,2.05-.21,2.84.06,1.03.36.09,1.76,3.05,1.39,1.7-.21,4.57-1.36,3.77-3.38-3.21.13-5.44,2.4-8.88,1.16.47-1.19,1.69-2.08,1.55-3.47-.88.47-6.31-2.28-5.41-3.09,4.02.78,8.34-.88,12.45-1.64.44-.08.81-.68.87-.68.84,0,5.39-.19,5.6,0ZM140.27,118.46c-.2-.21-5.56.59-5.75.81-.24.28.06,1.73-.04,2.28.35.36,5.19-.84,5.6-1.54.2-.33.31-1.43.19-1.55ZM139.89,122.71c-2.31.32-6.07-1.29-5.41,2.32.71-.03,5.22-.2,5.41-.39.11-.1-.07-1.51,0-1.93Z"/><path class="cls-2" d="M125.07,116.77c-.21.3-.83.41-1.12,1-1.07,2.14,2.14,3.15,2.43,5.11-1.86.89-3.64,1.49-5.3,2.8-.31.25-.71,0-.49.88,6.32-.2,12.27,2.5,18.46,3.75,3.61.73,7.24,1.17,10.89,1.67,1.22,1.48-3.66,2.76-4.61,2.91-3.8.6-10-.95-13.7-2.17-4.04-1.34-7.93-4.15-12.07-4.46-2-.15-5.65.73-7.08-1.3,4.3-.52,5.81.46,8.27-3.51,1.67-2.71.6-1.76-.37-3.81-.3-.63-.77-2.38-1.03-2.64-.8-.79-4.91-.68-4.93-3.56.97.04,1.44.75,2.51.8,2.8.13,6.45-3,9.44.21.1.45-.94,1.86-1.28,2.33Z"/><path class="cls-2" d="M143.65,104.45c-.63.59-2.07.36-2.97.7-.68.26-2.97,2.6-3.49,2.1.91-2.51,3.43-4.42,3.09-7.34,2.25.16,5.9,2.18,3.38,4.54Z"/><path class="cls-2" d="M124.82,109.19c-.69.67-7.58-2.69-6.95-5.02.63-.6,8.19,3.81,6.95,5.02Z"/><path class="cls-2" d="M135.13,104.67c.28.29,1.56,2.7,1.27,2.97-3.13.38-4.85-2-5.79-4.63,1.3.33,3.58.7,4.51,1.66Z"/><path class="cls-3" d="M66.51,113.83c.35.32-1.68,2.99-2.31,3.09-.16-2.34-.37-3.2,2.31-3.09Z"/><path class="cls-3" d="M140.27,118.46c.12.12.01,1.22-.19,1.55-.41.7-5.25,1.9-5.6,1.54.1-.55-.19-2,.04-2.28.19-.22,5.54-1.02,5.75-.81Z"/><path class="cls-3" d="M139.89,122.71c-.07.43.11,1.83,0,1.93-.2.19-4.7.36-5.41.39-.66-3.61,3.1-1.99,5.41-2.32Z"/><path class="cls-1" d="M31.66,46.29c2.05,1.48,3.22,3.04,3.53,4.66.17.92-.18,1.98-1.04,3.17l-2.64,3.65-10.57-7.66,2.92-4.03c.79-1.08,1.81-1.64,3.07-1.66,1.4-.03,2.98.59,4.74,1.86ZM30.53,47.76c-2.2-1.59-3.8-1.7-4.79-.33l-1.87,2.58,6.7,4.85,1.36-1.88c.64-.89.92-1.67.83-2.36-.12-.93-.87-1.88-2.23-2.87Z"/><path class="cls-1" d="M43.68,43.12l-4.76,4.96-7.71-7.42,4.71-4.9,1.37,1.31-3.63,3.78,1.68,1.61,2.12-2.2,1.33,1.28-2.12,2.2,1.9,1.82,3.69-3.83,1.44,1.38Z"/><path class="cls-1" d="M51.73,36.41l-5.89,4.79-8.23-10.13,1.39-1.13,6.68,8.23,4.5-3.66,1.55,1.91Z"/><path class="cls-1" d="M59.7,31.38l-5.85,3.62-5.63-9.1,5.78-3.58,1,1.61-4.46,2.76,1.22,1.98,2.6-1.61.97,1.57-2.6,1.61,1.38,2.24,4.52-2.8,1.05,1.7Z"/><path class="cls-1" d="M68.06,24.62c.42.92.59,1.58.51,1.99-.08.41-.4.74-.96.99l-4.46,2.03c-.56.26-1.02.28-1.38.08-.35-.2-.74-.77-1.17-1.7l-2.34-5.13c-.43-.94-.6-1.6-.52-2s.4-.73.97-.98l4.46-2.03c.56-.26,1.02-.28,1.38-.08.35.2.74.77,1.17,1.7l2.34,5.13ZM66.85,25.7l-2.77-6.08-4.65,2.12,2.77,6.08,4.65-2.11Z"/><path class="cls-1" d="M78.99,23.77l-1.02.31-7.22-5.35,2.08,6.9-1.35.41-3.09-10.24,1.02-.31,7.2,5.25-2.05-6.8,1.33-.4,3.09,10.24Z"/><path class="cls-1" d="M94.22,18.46c.11,1.21.04,2.04-.19,2.48-.24.44-.72.7-1.44.76l-3.3.29c-.72.06-1.24-.1-1.55-.5-.31-.39-.52-1.2-.63-2.41l-.24-2.7,1.75-.74.35,3.91,3.52-.31-.94-10.56,1.79-.16.88,9.93Z"/><path class="cls-1" d="M105.13,19.18c-.04,1.01-.18,1.68-.44,2.01-.26.33-.69.48-1.31.46l-4.19-.15c-.62-.02-1.04-.21-1.27-.55-.23-.35-.32-1.02-.29-2.04l.3-8.16,1.54.06-.32,8.7,4.4.16.32-8.7,1.56.06-.3,8.17Z"/><path class="cls-1" d="M116.49,17.97c-.59,3.54-2.26,5.09-5.02,4.63l-3.83-.63,1.75-10.56,4.21.7c1.11.18,1.93.72,2.45,1.61.59,1.04.73,2.45.43,4.25ZM114.94,17.58c.36-2.15-.19-3.34-1.64-3.58l-2.69-.44-1.11,6.69,1.96.33c.94.15,1.64.08,2.12-.21.67-.44,1.12-1.36,1.35-2.78Z"/><path class="cls-1" d="M126.4,23.81c-.3.97-.61,1.58-.94,1.83-.33.25-.79.29-1.38.1l-4.68-1.44c-.59-.18-.95-.47-1.09-.85-.13-.38-.05-1.07.26-2.05l1.66-5.39c.3-.98.62-1.6.94-1.84s.79-.27,1.38-.09l4.68,1.44c.59.18.95.47,1.09.85.13.38.05,1.07-.26,2.05l-1.66,5.39ZM124.78,23.82l1.97-6.38-4.88-1.5-1.97,6.38,4.88,1.5Z"/><path class="cls-1" d="M142.72,31.25c-.6,1.06-1.12,1.7-1.57,1.93s-.99.17-1.62-.19l-4.01-2.28c-.63-.36-.97-.79-1-1.29-.03-.5.26-1.28.86-2.34l3.4-5.98c.6-1.06,1.12-1.7,1.57-1.93.45-.23.99-.17,1.62.19l4.01,2.28c.8.45,1.11,1.05.95,1.79-.09.44-.56,1.41-1.42,2.92l-1.8-.47,1.22-2.16-4.22-2.4-4.09,7.19,4.22,2.4,1.39-2.44,1.25,1.44-.76,1.34Z"/><path class="cls-1" d="M148.93,39.62l-5.22-3.92,6.42-8.56,1.25.93-5.22,6.96,3.98,2.98-1.2,1.6Z"/><path class="cls-1" d="M157.7,44.36c-.7.73-1.26,1.13-1.67,1.21-.41.07-.84-.1-1.29-.53l-3.03-2.91c-.45-.43-.64-.85-.58-1.26.06-.41.44-.98,1.14-1.71l5.66-5.89,1.11,1.07-6.03,6.27,3.18,3.05,6.03-6.27,1.12,1.08-5.66,5.89Z"/><path class="cls-1" d="M163.9,52.43c-1.09.88-2.04.81-2.87-.21l-3.31-4.1,8.32-6.73,3.58,4.42c.63.78.4,1.6-.67,2.47l-1,.81c-.79.64-1.49.74-2.1.31.31.71.02,1.43-.88,2.16l-1.06.86ZM163.56,50.77l.63-.51c.31-.25.48-.48.5-.67.02-.14-.06-.31-.22-.51l-2.18-2.69-2.12,1.72,2.18,2.69c.16.2.32.31.46.32.19.02.45-.09.76-.35ZM166.87,48.02l.79-.64c.39-.32.45-.66.16-1.01l-2.18-2.69-1.97,1.59,2.18,2.69c.29.36.63.38,1.02.06Z"/></svg>
